<!-- icon666.com - MILLIONS vector ICONS FREE --><svg id="Capa_1" enable-background="new 0 0 512 512" viewBox="0 0 512 512" xmlns="http://www.w3.org/2000/svg"><g><path d="m57.89 450.204-27.882 37.909c-3.352 4.557-3.854 10.611-1.301 15.659s7.728 8.228 13.385 8.228h427.817c5.656 0 10.832-3.182 13.385-8.229s2.05-11.102-1.301-15.659l-27.882-37.909h-396.221z" fill="#000000" style="fill: rgb(255, 255, 255);"></path><path d="m71.807 193.02h90.796v227.184h-90.796z" fill="#000000" style="fill: rgb(255, 255, 255);"></path><path d="m349.396 193.02h90.796v227.184h-90.796z" fill="#000000" style="fill: rgb(255, 255, 255);"></path><path d="m405.187 84.295-141.654-82.266c-4.658-2.705-10.408-2.705-15.066 0l-141.654 82.266z" fill="#000000" style="fill: rgb(255, 255, 255);"></path><path d="m462.272 114.295h-412.544c-5.088 0-9.229 4.14-9.229 9.229v30.268c0 5.088 4.14 9.229 9.229 9.229h412.543c5.088 0 9.228-4.14 9.228-9.229v-30.268c.001-5.089-4.139-9.229-9.227-9.229z" fill="#000000" style="fill: rgb(255, 255, 255);"></path><path d="m275.412 288.762c-10.517-3.717-22.119-8.186-28.436-13.14-.978-.767-1.702-3.25-1.12-6.343.29-1.539 1.631-6.679 6.704-8.208 9.725-2.932 16.305.885 18.682 2.661 6.634 4.961 16.035 3.603 20.995-3.032s3.603-16.035-3.032-20.995c-2.431-1.818-8.206-5.614-16.458-7.878v-2.411c0-8.284-6.716-15-15-15s-15 6.716-15 15v3.325c-13.548 4.557-23.606 16.306-26.372 30.981-2.635 13.985 1.996 27.589 12.086 35.504 9.705 7.612 23.496 13.063 36.953 17.82 8.975 3.172 9.882 9.647 9.063 14.52-1.15 6.842-6.907 14.235-16.829 14.302-11.068.068-13.953-.38-22.176-5.76-6.934-4.536-16.229-2.592-20.765 4.341s-2.592 16.229 4.341 20.765c9.013 5.896 15.881 8.63 23.7 9.822v2.685c0 8.284 6.716 15 15 15s15-6.716 15-15v-4.295c17.523-5.874 28.724-21.478 31.314-36.885 3.573-21.258-7.941-40.458-28.65-47.779z" fill="#000000" style="fill: rgb(255, 255, 255);"></path></g></svg>