<!-- icon666.com - MILLIONS OF FREE VECTOR ICONS --><svg version="1.1" id="Capa_1" xmlns="http://www.w3.org/2000/svg" xmlns:xlink="http://www.w3.org/1999/xlink" x="0px" y="0px" viewBox="0 0 512 512" style="enable-background:new 0 0 512 512;" xml:space="preserve"><g><g><polygon points="37.514,296.133 83.829,471.133 428.171,471.133 474.487,296.133 " fill="#000000" style="fill: rgb(255, 255, 255);"></polygon></g></g><g><g><path d="M301,206.133c0-24.813-20.187-45-45-45c-0.284,0-0.564,0.016-0.847,0.021L210.045,40.867L181.955,51.4l45.113,120.302 C217.253,179.964,211,192.33,211,206.133H0v60h512v-60H301z M256,221.133c-8.271,0-15-6.729-15-15s6.729-15,15-15s15,6.729,15,15 S264.271,221.133,256,221.133z" fill="#000000" style="fill: rgb(255, 255, 255);"></path></g></g></svg>