<!-- icon666.com - MILLIONS vector ICONS FREE --><svg id="Layer_1" enable-background="new 0 0 64 64" viewBox="0 0 64 64" xmlns="http://www.w3.org/2000/svg"><g><g id="LINE_47_"><g><path d="m33.99 34.007c-1.104 0-2-.896-2-2v-16c0-1.104.896-2 2-2s2 .896 2 2v16c0 1.104-.895 2-2 2z" fill="#000000" style="fill: rgb(255, 255, 255);"></path></g></g><g id="LINE_48_"><g><path d="m21.99 34.007c-1.104 0-2-.896-2-2v-16c0-1.104.896-2 2-2s2 .896 2 2v16c0 1.104-.895 2-2 2z" fill="#000000" style="fill: rgb(255, 255, 255);"></path></g></g><g id="LINE_49_"><g><path d="m33.99 34.007c-.512 0-1.024-.195-1.414-.586l-6-6c-.781-.781-.781-2.047 0-2.828.78-.781 2.048-.781 2.828 0l6 6c.781.781.781 2.047 0 2.828-.39.391-.902.586-1.414.586z" fill="#000000" style="fill: rgb(255, 255, 255);"></path></g></g><g id="LINE_50_"><g><path d="m21.99 34.007c-.512 0-1.024-.195-1.414-.586-.781-.781-.781-2.047 0-2.828l6-6c.78-.781 2.048-.781 2.828 0 .781.781.781 2.047 0 2.828l-6 6c-.39.391-.902.586-1.414.586z" fill="#000000" style="fill: rgb(255, 255, 255);"></path></g></g><g id="LINE_51_"><g><path d="m45.99 18.007c-1.104 0-2-.896-2-2v-6c0-1.104.896-2 2-2s2 .896 2 2v6c0 1.104-.895 2-2 2z" fill="#000000" style="fill: rgb(255, 255, 255);"></path></g></g><g id="ARC_29_"><g><path d="m45.99 12.007c-1.104 0-2-.896-2-2v-.002c-1.104 0-2-.894-2-1.999 0-1.104.896-1.999 2-1.999 2.206 0 4 1.794 4 4 0 1.104-.895 2-2 2z" fill="#000000" style="fill: rgb(255, 255, 255);"></path></g></g><g id="LINE_52_"><g><path d="m43.99 10.007h-26c-1.104 0-2-.896-2-2s.896-2 2-2h26c1.104 0 2 .896 2 2s-.895 2-2 2z" fill="#000000" style="fill: rgb(255, 255, 255);"></path></g></g><g id="ARC_30_"><g><path d="m49.99 20.007c-1.104 0-2-.896-2-2v-.002c-1.104 0-2-.894-2-1.999 0-1.104.896-1.999 2-1.999 2.206 0 4 1.794 4 4 0 1.104-.895 2-2 2z" fill="#000000" style="fill: rgb(255, 255, 255);"></path></g></g><g id="LINE_53_"><g><path d="m49.99 56.007c-1.104 0-2-.896-2-2v-36c0-1.104.896-2 2-2s2 .896 2 2v36c0 1.104-.895 2-2 2z" fill="#000000" style="fill: rgb(255, 255, 255);"></path></g></g><g id="LINE_54_"><g><path d="m47.99 18.007h-30c-1.104 0-2-.896-2-2s.896-2 2-2h30c1.104 0 2 .896 2 2s-.895 2-2 2z" fill="#000000" style="fill: rgb(255, 255, 255);"></path></g></g><g id="ARC_31_"><g><path d="m47.99 58.007c-1.104 0-2-.896-2-2s.896-2 2-2h.002c0-1.104.894-2 1.999-2 1.104 0 1.999.896 1.999 2 0 2.205-1.794 4-4 4z" fill="#000000" style="fill: rgb(255, 255, 255);"></path></g></g><g id="LINE_55_"><g><path d="m47.99 58.007h-30c-1.104 0-2-.896-2-2s.896-2 2-2h30c1.104 0 2 .896 2 2s-.895 2-2 2z" fill="#000000" style="fill: rgb(255, 255, 255);"></path></g></g><g id="ARC_32_"><g><path d="m17.99 58.007c-3.309 0-6-2.691-6-6 0-1.104.896-2 2-2s2 .896 2 2c0 1.103.897 2 2 2 1.104 0 2 .896 2 2s-.895 2-2 2z" fill="#000000" style="fill: rgb(255, 255, 255);"></path></g></g><g id="LINE_56_"><g><path d="m13.99 54.007c-1.104 0-2-.896-2-2v-40c0-1.104.896-2 2-2s2 .896 2 2v40c0 1.104-.895 2-2 2z" fill="#000000" style="fill: rgb(255, 255, 255);"></path></g></g><g id="ARC_33_"><g><path d="m17.99 18.007c-3.309 0-6-2.691-6-6s2.691-6 6-6c1.104 0 2 .896 2 2s-.896 2-2 2c-1.084 0-2 .916-2 2s.916 2 2 2c1.104 0 2 .896 2 2s-.895 2-2 2z" fill="#000000" style="fill: rgb(255, 255, 255);"></path></g></g></g></svg>