<!-- icon666.com - MILLIONS vector ICONS FREE --><svg id="Layer_1" viewBox="0 0 512 512" xmlns="http://www.w3.org/2000/svg" data-name="Layer 1"><g fill="rgb(0,0,0)"><path d="m500.107 244.4c-1.112-1.257-27.727-31.127-70.738-61.2-57.65-40.3-117.599-61.6-173.369-61.6a240.292 240.292 0 0 0 -45.387 4.431 17.5 17.5 0 1 0 6.629 34.366 205.264 205.264 0 0 1 38.758-3.797c61.059 0 116.7 29.8 152.616 54.806a432.657 432.657 0 0 1 54 44.6 426.4 426.4 0 0 1 -73.059 57.059 17.5 17.5 0 1 0 18.289 29.842c55.363-33.932 90.782-73.639 92.263-75.313a17.5 17.5 0 0 0 -.002-23.194z" fill="rgb(0,0,0)" style="fill: #649eed;"></path><path d="m304.1 252.338a17.5 17.5 0 0 0 17.432 16.2q.657 0 1.323-.05a17.5 17.5 0 0 0 16.145-18.756 83.248 83.248 0 0 0 -76.457-76.711 17.5 17.5 0 1 0 -2.721 34.9 48.486 48.486 0 0 1 44.278 44.417z" fill="rgb(0,0,0)" style="fill: #649eed;"></path><path d="m172.04 147.291-67.007-67.007a17.5 17.5 0 0 0 -24.749 24.749l49.589 49.589c-69.562 35.607-115.844 87.368-117.98 89.778a17.5 17.5 0 0 0 0 23.192c1.112 1.257 27.727 31.127 70.738 61.2 57.65 40.308 117.6 61.608 173.369 61.608 29.9 0 60.751-5.987 91.876-17.776l59.092 59.091a17.5 17.5 0 0 0 24.748-24.748s-259.616-259.619-259.676-259.676zm39.8 89.293 63.581 63.581a48.258 48.258 0 0 1 -63.581-63.581zm44.16 118.816c-61.059 0-116.695-29.8-152.616-54.805a432.726 432.726 0 0 1 -53.994-44.595c18.16-17.723 56.926-51.926 106.639-75.218l30.053 30.052a83.243 83.243 0 0 0 115.088 115.084l19.193 19.193c-21.937 6.825-43.5 10.289-64.363 10.289z" fill="rgb(0,0,0)" style="fill: #649eed;"></path></g></svg>