<!-- icon666.com - MILLIONS vector ICONS FREE --><svg id="Layer_1" viewBox="0 0 512 512" xmlns="http://www.w3.org/2000/svg" data-name="Layer 1"><g fill="rgb(0,0,0)"><path d="m256 390.4c-55.769 0-115.719-21.3-173.369-61.608-43.011-30.07-69.626-59.94-70.738-61.2a17.5 17.5 0 0 1 0-23.192c1.112-1.257 27.727-31.127 70.738-61.2 57.65-40.3 117.6-61.6 173.369-61.6s115.719 21.3 173.369 61.608c43.011 30.07 69.626 59.94 70.737 61.2a17.5 17.5 0 0 1 0 23.192c-1.111 1.257-27.726 31.127-70.737 61.2-57.65 40.3-117.599 61.6-173.369 61.6zm-206.606-134.4a432.852 432.852 0 0 0 53.99 44.6c35.921 25 91.557 54.8 152.616 54.8 95.078 0 177.411-70.95 206.6-99.4a432.873 432.873 0 0 0 -53.987-44.592c-35.913-25.008-91.554-54.808-152.613-54.808s-116.695 29.8-152.616 54.806a432.732 432.732 0 0 0 -53.99 44.594z" fill="rgb(0,0,0)" style="fill: #649eed;"></path><path d="m256 339.232a83.232 83.232 0 1 1 83.232-83.232 83.325 83.325 0 0 1 -83.232 83.232zm0-131.464a48.232 48.232 0 1 0 48.232 48.232 48.286 48.286 0 0 0 -48.232-48.232z" fill="rgb(0,0,0)" style="fill: #649eed;"></path></g></svg>