<!-- icon666.com - MILLIONS vector ICONS FREE --><svg version="1.1" id="Capa_1" xmlns="http://www.w3.org/2000/svg" xmlns:xlink="http://www.w3.org/1999/xlink" x="0px" y="0px" viewBox="0 0 438.886 438.886" style="enable-background:new 0 0 438.886 438.886;" xml:space="preserve"><g><g><g><path d="M195.84,212.778l-0.475-0.266c0.086,0.089,0.175,0.176,0.261,0.266H195.84z" fill="#000000" style="fill: rgb(255, 255, 255);"></path><path d="M131.413,162.645l-5.333,11.093l69.285,38.774C176.463,193.006,154.941,176.221,131.413,162.645z" fill="#000000" style="fill: rgb(255, 255, 255);"></path><polygon points="0,437.418 63.147,407.552 25.173,386.219 " fill="#000000" style="fill: rgb(255, 255, 255);"></polygon><path d="M240.427,259.285c-0.853,0-1.92,0-1.92,0L117.12,191.018l-22.613,48l147.627,82.773l32.213-16.427 C265.105,288.587,253.701,273.095,240.427,259.285z" fill="#000000" style="fill: rgb(255, 255, 255);"></path><polygon points="64.213,303.872 163.2,359.765 221.013,332.032 86.827,256.512 " fill="#000000" style="fill: rgb(255, 255, 255);"></polygon><polygon points="33.067,368.938 84.053,397.312 141.227,369.792 55.893,321.365 " fill="#000000" style="fill: rgb(255, 255, 255);"></polygon></g></g></g><g><g><path d="M329.173,51.285c-5.222-0.121-9.583,3.955-9.813,9.173c0.119,10.132-7.999,18.442-18.131,18.56 c-0.143,0.002-0.286,0.002-0.429,0c-5.135,0.228-9.178,4.46-9.173,9.6c-0.117,10.167-8.392,18.347-18.56,18.347 c-5.301-0.118-9.693,4.084-9.811,9.384c-0.002,0.072-0.002,0.144-0.002,0.216c-0.218,10.13-8.608,18.165-18.738,17.947 c-0.225-0.005-0.451-0.014-0.676-0.027c-5.361,0-9.707,4.346-9.707,9.707s4.346,9.707,9.707,9.707 c17.407,0.005,32.563-11.89,36.693-28.8c13.811-3.413,24.532-14.298,27.733-28.16c17.209-3.805,29.455-19.068,29.44-36.693 C337.423,55.579,333.82,51.796,329.173,51.285z" fill="#000000" style="fill: rgb(255, 255, 255);"></path></g></g><g><g><path d="M358.77,127.175c-0.635-4.273-3.99-7.628-8.264-8.264c-17.407-0.005-32.563,11.89-36.693,28.8 c-13.596,3.637-24.089,14.458-27.307,28.16c-17.044,3.929-29.199,18.991-29.44,36.48c0.797,5.361,5.789,9.061,11.15,8.264 c4.273-0.635,7.628-3.99,8.264-8.264c0.117-10.049,8.297-18.134,18.347-18.133c5.302,0,9.6-4.298,9.6-9.6 c-0.12-10.051,7.871-18.327,17.92-18.56c5.301,0.119,9.694-4.081,9.813-9.382c0.003-0.144,0.003-0.288,0-0.432 c0.232-9.966,8.378-17.923,18.347-17.92C355.867,137.528,359.567,132.536,358.77,127.175z" fill="#000000" style="fill: rgb(255, 255, 255);"></path></g></g><g><g><path d="M432.427,230.912c-5.321-6.639-12.929-11.052-21.333-12.373c-17.955-2.133-34.258,10.643-36.48,28.587l-1.067,8.533v4.48 c-1.197,7.421-7.863,12.698-15.36,12.16c-3.583-0.5-6.813-2.422-8.96-5.333c-2.49-2.794-3.655-6.525-3.2-10.24l1.707-12.8 c1.14-8.667-1.414-17.415-7.04-24.107c-4.977-7.026-12.763-11.542-21.333-12.373c-8.675-1.293-17.495,1.105-24.32,6.613 c-6.608,5.347-11.013,12.943-12.373,21.333l-1.067,8.107c-0.747,5.249,2.902,10.11,8.151,10.857 c0.056,0.008,0.113,0.016,0.169,0.023c5.251,0.522,10.008-3.116,10.88-8.32v-8.32c0.181-3.579,1.989-6.879,4.907-8.96 c2.834-2.419,6.533-3.575,10.24-3.2c3.588,0.649,6.834,2.537,9.173,5.333c2.184,2.941,3.175,6.599,2.773,10.24l-1.28,12.8 c-2.451,17.621,9.847,33.893,27.468,36.344c0.372,0.052,0.745,0.097,1.119,0.136h4.053c7.271,0.102,14.354-2.31,20.053-6.827 c6.881-5.174,11.473-12.827,12.8-21.333v-8.533v-4.053c0.994-7.594,7.955-12.944,15.549-11.95 c0.008,0.001,0.016,0.002,0.024,0.003c3.559,0.445,6.827,2.193,9.173,4.907c2.09,2.979,3.002,6.628,2.56,10.24 c-0.747,5.249,2.902,10.11,8.151,10.857c0.056,0.008,0.113,0.016,0.169,0.023c5.251,0.522,10.008-3.116,10.88-8.32 C439.705,246.781,437.496,238.023,432.427,230.912z" fill="#000000" style="fill: rgb(255, 255, 255);"></path></g></g><g><g><path d="M426.453,278.058c-5.094-0.29-9.593,3.291-10.453,8.32v2.56c-0.833,4.878,2.446,9.507,7.324,10.34 c0.33,0.056,0.662,0.094,0.996,0.113h1.28c4.84,0.043,8.955-3.523,9.6-8.32v-2.133 C435.702,283.544,431.829,278.727,426.453,278.058z" fill="#000000" style="fill: rgb(255, 255, 255);"></path></g></g><g><g><path d="M226.347,124.032c-1.198-8.448-5.635-16.099-12.373-21.333c-6.216-5.992-14.629-9.157-23.253-8.747l-12.8,1.28 c-7.569,0.888-14.471-4.406-15.573-11.947c-0.876-7.48,4.469-14.256,11.947-15.147h8.533h4.053 c18.474-2.29,31.595-19.122,29.305-37.596c-0.024-0.197-0.051-0.394-0.078-0.59c-1.322-8.405-5.734-16.013-12.373-21.333 c-6.822-5.217-15.333-7.724-23.893-7.04c-5.233,0.666-8.948,5.429-8.32,10.667c0.755,5.03,5.156,8.698,10.24,8.533 c3.521-0.588,7.121,0.429,9.813,2.773c3.021,2.142,4.966,5.488,5.333,9.173c0.982,7.358-4.187,14.118-11.545,15.099 c-0.134,0.018-0.268,0.034-0.402,0.047l-8.107,1.067h-4.693c-18.321,1.119-32.266,16.879-31.147,35.2 c1.119,18.321,16.879,32.266,35.2,31.147h3.627l12.8-1.707c7.506-0.667,14.273,4.524,15.573,11.947 c0.455,3.715-0.711,7.446-3.2,10.24c-2.122,3.043-5.479,4.994-9.173,5.333l-8.107,1.067c-5.155,0.552-8.886,5.178-8.334,10.333 c0.004,0.04,0.009,0.08,0.014,0.12c0.645,4.797,4.76,8.363,9.6,8.32h1.28h8.107c8.514-1.305,16.175-5.902,21.333-12.8 C225.207,141.379,227.605,132.638,226.347,124.032z" fill="#000000" style="fill: rgb(255, 255, 255);"></path></g></g><g><g><path d="M156.373,13.952c-0.654-5.261-5.449-8.997-10.711-8.343c-0.056,0.007-0.113,0.015-0.169,0.023h-2.133 c-5.232,0.764-9.022,5.386-8.747,10.667c0.537,4.919,4.653,8.668,9.6,8.747h3.627C153.162,24.171,156.894,19.32,156.373,13.952z" fill="#000000" style="fill: rgb(255, 255, 255);"></path></g></g></svg>