<!-- icon666.com - MILLIONS OF FREE VECTOR ICONS --><svg version="1.1" id="Layer_1" xmlns="http://www.w3.org/2000/svg" xmlns:xlink="http://www.w3.org/1999/xlink" x="0px" y="0px" viewBox="0 0 512.002 512.002" style="enable-background:new 0 0 512.002 512.002;" xml:space="preserve"><g><g><path d="M439.46,327.607c-0.249-8.833-7.353-15.931-16.182-16.191c-34.582-0.961-59.171,7.629-76.95,15.385 c-30.053,13.729-54.605,34.028-73.681,60.891V249.25c56.499-8.139,100.095-56.733,100.095-115.446V64.881 c0-26.599-29.716-42.532-51.873-27.761l-17.296,11.531l-18.817-32.145c-12.889-22.019-44.698-22-57.596,0.006l-18.807,32.14 l-17.295-11.53c-22.137-14.773-51.873,1.143-51.873,27.761v68.925c0,58.713,43.596,107.307,100.095,115.446V387.58 c-19.028-26.742-43.441-46.998-73.866-60.897c-17.519-7.635-42.195-16.291-76.69-15.266c-8.83,0.26-15.933,7.358-16.183,16.189 c-1.01,34.62,7.624,59.165,15.379,76.946c19.316,42.345,52.11,73.478,92.037,91.694c46.034,19.992,101.364,22.045,152.37-0.125 c40.14-18.322,72.69-49.784,91.873-91.824C431.835,386.772,440.47,362.227,439.46,327.607z M236.17,67.195l19.794-33.827 l19.794,33.827L255.965,80.39L236.17,67.195z" fill="#000000" style="fill: rgb(255, 255, 255);"></path></g></g></svg>