<!-- icon666.com - MILLIONS OF FREE VECTOR ICONS --><svg id="Layer_1" viewBox="0 0 32 32" xmlns="http://www.w3.org/2000/svg" data-name="Layer 1"><path d="m23.71 3.61a10 10 0 0 0 -15.41 0 1.07 1.07 0 1 0 1.63 1.39 7.9 7.9 0 0 1 12.14 0 1.07 1.07 0 1 0 1.64-1.37z" fill="#000000" style="fill: rgb(255, 255, 255);"></path><path d="m16 6a7 7 0 0 0 -5.41 2.53 1.07 1.07 0 1 0 1.64 1.37 4.91 4.91 0 0 1 7.54 0 1.07 1.07 0 1 0 1.64-1.37 7 7 0 0 0 -5.41-2.53z" fill="#000000" style="fill: rgb(255, 255, 255);"></path><circle cx="16" cy="13.44" r="1.49" fill="#000000" style="fill: rgb(255, 255, 255);"></circle><path d="m9.07 18.13a1.07 1.07 0 0 0 -1.07 1.07v8.07l-5.5-8.64a1.07 1.07 0 0 0 -2 .57v11.73a1.07 1.07 0 1 0 2.13 0v-8.07l5.5 8.64a1.09 1.09 0 0 0 1.2.45 1.07 1.07 0 0 0 .77-1v-11.75a1.07 1.07 0 0 0 -1.03-1.07z" fill="#000000" style="fill: rgb(255, 255, 255);"></path><path d="m14.71 20.58a1.08 1.08 0 0 1 .75-.31h4.27a1.07 1.07 0 1 0 0-2.13h-4.26a3.18 3.18 0 0 0 -2.26.94 3.22 3.22 0 0 0 -.94 2.26v9.6a1.07 1.07 0 1 0 2.13 0v-3.83h5.33a1.07 1.07 0 1 0 0-2.13h-5.33v-3.65a1.07 1.07 0 0 1 .31-.75z" fill="#000000" style="fill: rgb(255, 255, 255);"></path><path d="m30.4 29.87h-4.27a1.07 1.07 0 0 1 -1.07-1.07v-7.47a1.07 1.07 0 0 1 1.07-1.07h4.27a1.07 1.07 0 1 0 0-2.13h-4.27a3.18 3.18 0 0 0 -2.26.94 3.22 3.22 0 0 0 -.94 2.26v7.47a3.22 3.22 0 0 0 .94 2.26 3.18 3.18 0 0 0 2.26.94h4.27a1.07 1.07 0 1 0 0-2.13z" fill="#000000" style="fill: rgb(255, 255, 255);"></path></svg>