<!-- icon666.com - MILLIONS vector ICONS FREE --><svg viewBox="0 0 32 32" xmlns="http://www.w3.org/2000/svg"><g id="pill"><path d="m28.3642578 3.6362305c-1.7001953-1.6997071-3.9609375-2.6357422-6.3642578-2.6357422-2.4042969 0-4.6640625.9360352-6.3642578 2.6357422l-12 12c-3.5087891 3.5087891-3.5087891 9.21875 0 12.7275391 1.7001953 1.7001952 3.9599609 2.6362304 6.3642578 2.6362304s4.6640625-.9360352 6.3642578-2.6362305l12-11.9995117c3.5087891-3.508789 3.5087891-9.21875 0-12.7280273zm-13.4140625 23.3134765c-1.3222656 1.3222657-3.0800781 2.050293-4.9501953 2.050293s-3.6279297-.7280273-4.9501953-2.050293c-2.7294922-2.7294922-2.7294922-7.1699219 0-9.8994141l5.2929688-5.293457 9.9003906 9.9003906zm12-11.9995117-5.2929688 5.2929688-9.9003906-9.9003906 5.2929688-5.2924805c1.3222656-1.3217774 3.0800781-2.0498047 4.9501953-2.0498047 1.8691406 0 3.6279297.7280273 4.9501953 2.0498047 2.7294922 2.7294922 2.7294922 7.1708984 0 9.8999023zm-1.4140625-8.4848633c.390625.390625.390625 1.0234375 0 1.4140625-.1953125.1953125-.4511719.2929688-.7070313.2929688s-.5117188-.0976563-.7070313-.2929688c-1.1347656-1.1337891-3.1113281-1.1337891-4.2441406 0-.390625.3896484-1.0234375.3901367-1.4140625-.0004883s-.390625-1.0239258 0-1.4145508c.9453126-.9438476 2.2001954-1.4638671 3.5361329-1.4638671s2.5917969.5200195 3.5361328 1.4648437z" fill="#000000" style="fill: rgb(255, 255, 255);"></path></g></svg>