<!-- icon666.com - MILLIONS OF FREE VECTOR ICONS --><svg viewBox="0 0 512 512" xmlns="http://www.w3.org/2000/svg"><path d="m275.769531 427.148438-190.917969-190.917969-31.820312 31.816406 106.066406 106.066406-21.210937 21.214844-106.066407-106.066406-31.820312 31.816406 190.917969 190.921875zm0 0" fill="#000000" style="fill: rgb(255, 255, 255);"></path><path d="m95.453125 458.984375-21.214844 21.214844-42.425781-42.425781 21.210938-21.214844zm0 0" fill="#000000" style="fill: rgb(255, 255, 255);"></path><path d="m180.308594 289.265625 108.949218-108.949219 42.425782 42.425782-108.949219 108.945312zm0 0" fill="#000000" style="fill: rgb(255, 255, 255);"></path><path d="m416.527344 53.019531 21.210937-21.214843 42.425781 42.425781-21.210937 21.214843zm0 0" fill="#000000" style="fill: rgb(255, 255, 255);"></path><path d="m289.261719 31.820312 106.066406 106.066407-21.214844 21.210937-106.0625-106.066406-31.820312 31.820312 190.917969 190.917969 84.851562-84.851562-190.917969-190.917969zm0 0" fill="#000000" style="fill: rgb(255, 255, 255);"></path></svg>