<!-- icon666.com - MILLIONS vector ICONS FREE --><svg version="1.1" id="Layer_1" xmlns="http://www.w3.org/2000/svg" xmlns:xlink="http://www.w3.org/1999/xlink" x="0px" y="0px" viewBox="0 0 512.002 512.002" style="enable-background:new 0 0 512.002 512.002;" xml:space="preserve"><g><g><path d="M472.188,243.664c-0.831,0.034-1.67,0.05-2.511,0.05c-22.302,0-41.836-12.029-52.488-29.934 c-0.406-0.683-1.131-1.109-1.926-1.109c-0.746,0-1.432,0.377-1.85,0.994c-10.982,16.229-29.548,26.926-50.576,26.926 c-21.029,0-39.594-10.697-50.576-26.926c-0.418-0.618-1.106-0.994-1.85-0.994h-1.987c-0.746,0-1.432,0.377-1.85,0.994 c-10.982,16.229-29.548,26.926-50.576,26.926c-21.029,0-39.594-10.697-50.576-26.926c-0.418-0.618-1.106-0.994-1.85-0.994h-1.987 c-0.746,0-1.432,0.377-1.85,0.994c-10.982,16.229-29.548,26.926-50.576,26.926s-39.594-10.697-50.576-26.926 c-0.418-0.618-1.106-0.994-1.85-0.994c-0.794,0-1.519,0.425-1.926,1.109c-10.651,17.903-30.186,29.934-52.488,29.934 c-0.842,0-1.68-0.017-2.513-0.052c-7.577-0.306-14.786-2.066-21.377-5.075v180.225c0,11.162,9.048,20.209,20.209,20.209h52.586 V295.584h86.968v143.439h295.163c11.162,0,20.209-9.048,20.209-20.209V238.59C486.976,241.598,479.767,243.358,472.188,243.664z M436.347,374.256h-168.99v-78.673h168.99V374.256z" fill="#000000" style="fill: rgb(255, 255, 255);"></path></g></g><g><g><path d="M194.959,182.578V72.98h-91.593v109.598c0,0.017-0.005,0.031-0.005,0.047s0.005,0.03,0.005,0.047h0.119 c1.612,23.8,21.476,42.673,45.677,42.673c24.202,0,44.065-18.873,45.678-42.673h0.128 C194.968,182.64,194.959,182.61,194.959,182.578z" fill="#000000" style="fill: rgb(255, 255, 255);"></path></g></g><g><g><path d="M508.347,168.005l-22.673-51.73c-10.938-24.92-34.873-41.476-61.79-43.145v109.448c0,0.017-0.005,0.034-0.005,0.05 c0,0.015,0.005,0.029,0.005,0.044c0,25.251,20.544,45.796,45.796,45.796c0.634,0,1.264-0.012,1.892-0.038 c13.952-0.566,26.259-7.78,33.766-19.792C513,196.378,514.126,181.189,508.347,168.005z" fill="#000000" style="fill: rgb(255, 255, 255);"></path></g></g><g><g><path d="M317.045,72.98v109.598c0,0.032-0.009,0.063-0.009,0.095h0.127c1.612,23.8,21.476,42.673,45.678,42.673 c24.201,0,44.065-18.873,45.677-42.673l0.119-109.692H317.045z" fill="#000000" style="fill: rgb(255, 255, 255);"></path></g></g><g><g><path d="M301.797,182.578V72.98h-91.591v109.598c0,0.032-0.009,0.063-0.009,0.095h0.128c1.612,23.8,21.476,42.673,45.677,42.673 c24.201,0,44.065-18.873,45.677-42.673h0.128C301.806,182.64,301.797,182.61,301.797,182.578z" fill="#000000" style="fill: rgb(255, 255, 255);"></path></g></g><g><g><path d="M88.118,182.576V73.129c-26.916,1.67-50.852,18.225-61.791,43.147L3.655,168.003c-5.779,13.184-4.654,28.374,3.009,40.634 c7.507,12.013,19.814,19.227,33.765,19.791c0.63,0.026,1.26,0.038,1.894,0.038c25.253,0,45.796-20.544,45.796-45.796 c0-0.017,0.005-0.031,0.005-0.047C88.122,182.607,88.118,182.593,88.118,182.576z" fill="#000000" style="fill: rgb(255, 255, 255);"></path></g></g></svg>